<svg width="26" height="26" viewBox="0 0 26 26" fill="none" xmlns="http://www.w3.org/2000/svg">
<path d="M3.06168 0.830834C3.34604 0.546384 3.68766 0.325683 4.06385 0.183387C4.44004 0.0410905 4.84221 -0.0195454 5.24363 0.00550542C5.64506 0.0305563 6.03656 0.140721 6.39215 0.328683C6.74773 0.516646 7.05926 0.778107 7.30605 1.0957L10.2212 4.84286C10.7558 5.53022 10.9443 6.42557 10.7331 7.27055L9.84422 10.8292C9.79826 11.0135 9.80075 11.2066 9.85143 11.3897C9.90211 11.5728 9.99926 11.7396 10.1335 11.8741L14.126 15.8666C14.2606 16.0011 14.4277 16.0984 14.6111 16.1491C14.7945 16.1998 14.9879 16.2021 15.1724 16.1558L18.7294 15.267C19.1464 15.1627 19.5817 15.1546 20.0022 15.2433C20.4228 15.332 20.8177 15.5151 21.1571 15.7788L24.9042 18.694C26.2513 19.7421 26.3748 21.7327 25.1691 22.9368L23.4889 24.617C22.2865 25.8195 20.4893 26.3476 18.8139 25.7577C14.526 24.249 10.6328 21.7942 7.42304 18.5754C4.20449 15.3661 1.74971 11.4734 0.240769 7.18605C-0.347462 5.51234 0.180646 3.71351 1.38311 2.51104L3.06331 0.830834H3.06168Z" fill="#064AFF"/>
</svg>
