<svg width="26" height="26" viewBox="0 0 26 26" fill="none" xmlns="http://www.w3.org/2000/svg">
<path d="M7.17774 5.33315C7.3491 5.16174 7.55495 5.02874 7.78165 4.943C8.00834 4.85725 8.25068 4.82071 8.49258 4.83581C8.73448 4.8509 8.9704 4.91729 9.18467 5.03055C9.39894 5.14382 9.58667 5.30137 9.73538 5.49276L11.492 7.75078C11.8142 8.16498 11.9278 8.70452 11.8005 9.2137L11.2649 11.3581C11.2372 11.4692 11.2387 11.5856 11.2692 11.6959C11.2998 11.8062 11.3583 11.9067 11.4392 11.9878L13.845 14.3936C13.9262 14.4747 14.0269 14.5333 14.1374 14.5639C14.2479 14.5944 14.3644 14.5958 14.4756 14.5679L16.6191 14.0323C16.8704 13.9695 17.1326 13.9646 17.3861 14.0181C17.6395 14.0715 17.8775 14.1818 18.082 14.3408L20.34 16.0974C21.1517 16.729 21.2262 17.9285 20.4996 18.6541L19.4871 19.6666C18.7625 20.3912 17.6795 20.7095 16.67 20.354C14.0861 19.4449 11.7401 17.9656 9.80589 16.026C7.86639 14.0921 6.38715 11.7463 5.47787 9.16278C5.1234 8.15421 5.44164 7.07024 6.16624 6.34564L7.17872 5.33315H7.17774Z" fill="#064AFF"/>
</svg>
