<svg width="18" height="15" viewBox="0 0 18 15" fill="none" xmlns="http://www.w3.org/2000/svg">
<path d="M0 2.4C0 2.4 0 0 2.25 0H15.75C15.75 0 18 0 18 2.4V9.6C18 9.6 18 12 15.75 12H11.25C11.25 12.8004 11.3434 13.4004 11.5312 13.8H12.375C12.5242 13.8 12.6673 13.8632 12.7727 13.9757C12.8782 14.0883 12.9375 14.2409 12.9375 14.4C12.9375 14.5591 12.8782 14.7117 12.7727 14.8243C12.6673 14.9368 12.5242 15 12.375 15H5.625C5.47582 15 5.33274 14.9368 5.22725 14.8243C5.12176 14.7117 5.0625 14.5591 5.0625 14.4C5.0625 14.2409 5.12176 14.0883 5.22725 13.9757C5.33274 13.8632 5.47582 13.8 5.625 13.8H6.46875C6.65662 13.4004 6.75 12.8004 6.75 12H2.25C2.25 12 0 12 0 9.6V2.4Z" fill="#064AFF"/>
<rect x="2" y="2" width="14" height="8" rx="1" fill="white"/>
</svg>
