<svg width="16" height="14" viewBox="0 0 16 14" fill="none" xmlns="http://www.w3.org/2000/svg">
<path fill-rule="evenodd" clip-rule="evenodd" d="M1 1.5C1 1.36739 1.05268 1.24021 1.14645 1.14645C1.24021 1.05268 1.36739 1 1.5 1H14.5C14.6326 1 14.7598 1.05268 14.8536 1.14645C14.9473 1.24021 15 1.36739 15 1.5C15 1.63261 14.9473 1.75979 14.8536 1.85355C14.7598 1.94732 14.6326 2 14.5 2H1.5C1.36739 2 1.24021 1.94732 1.14645 1.85355C1.05268 1.75979 1 1.63261 1 1.5Z" fill="white"/>
<path d="M10.2924 8.79245C10.4801 8.60479 10.7346 8.49937 11 8.49937C11.2654 8.49937 11.5199 8.60479 11.7076 8.79245C11.8952 8.9801 12.0006 9.23462 12.0006 9.5C12.0006 9.76538 11.8952 10.0199 11.7076 10.2076L8.708 13.2071C8.61515 13.3001 8.50466 13.3742 8.38327 13.4245C8.26178 13.4749 8.13154 13.5009 8 13.5009C7.86847 13.5009 7.73822 13.4749 7.61673 13.4245C7.49534 13.3742 7.38506 13.3003 7.29221 13.2073L4.29245 10.2076C4.10479 10.0199 3.99937 9.76538 3.99937 9.5C3.99937 9.23462 4.10479 8.9801 4.29245 8.79245C4.4801 8.60479 4.73462 8.49937 5 8.49937C5.26538 8.49937 5.5199 8.60479 5.70755 8.79245L7 10.0855V5.5C7 5.23478 7.10536 4.98043 7.29289 4.79289C7.48043 4.60536 7.73478 4.5 8 4.5C8.26522 4.5 8.51957 4.60536 8.70711 4.79289C8.89464 4.98043 9 5.23478 9 5.5V10.0855L10.2924 8.79245Z" fill="white"/>
<path d="M0.5 1.5C0.5 1.23478 0.605357 0.98043 0.792893 0.792893C0.980429 0.605357 1.23478 0.5 1.5 0.5H14.5C14.7652 0.5 15.0196 0.605357 15.2071 0.792893C15.3946 0.98043 15.5 1.23478 15.5 1.5C15.5 1.76522 15.3946 2.01957 15.2071 2.20711C15.0196 2.39464 14.7652 2.5 14.5 2.5H1.5C1.23478 2.5 0.980429 2.39464 0.792893 2.20711C0.605357 2.01957 0.5 1.76522 0.5 1.5Z" fill="white"/>
</svg>
