<svg width="31" height="30" viewBox="0 0 31 30" fill="none" xmlns="http://www.w3.org/2000/svg">
<path d="M21.2724 26.8463C20.7049 26.01 20.1974 25.1794 19.7616 24.42C20.7125 24.7872 21.7266 24.9768 22.7503 24.9787C24.8594 24.9831 26.8898 24.2037 28.4226 22.8013C29.9553 21.3989 30.8736 19.4805 30.9879 17.4419C31.1022 15.4032 30.4038 13.3999 29.0368 11.8452C27.6698 10.2904 25.7385 9.30287 23.6413 9.08625C23.7188 8.59314 23.7188 8.23127 23.7188 7.96877V7.96875C23.7188 5.85531 22.8515 3.82842 21.3077 2.33399C19.7639 0.839562 17.67 0 15.4867 0C13.3034 0 11.2096 0.839562 9.66575 2.33399C8.12193 3.82842 7.25462 5.85531 7.25462 7.96875V7.99312V7.99313C7.25462 8.31563 7.25462 8.6175 7.29917 8.96813C7.30451 9.00819 7.31032 9.04819 7.31661 9.08813C6.15341 9.21413 5.03135 9.57879 4.02526 10.1578C3.01918 10.7368 2.15222 11.5168 1.48221 12.4458C0.812192 13.3748 0.354536 14.4315 0.139769 15.5453C-0.0749985 16.659 -0.0419399 17.8043 0.23674 18.9048C0.515419 20.0052 1.03331 21.0354 1.75587 21.9268C2.47843 22.8181 3.38903 23.5501 4.42694 24.0738C5.46485 24.5975 6.6062 24.901 7.77485 24.9639C8.9435 25.0268 10.1126 24.8478 11.2041 24.4388C10.7702 25.1944 10.2647 26.0156 9.70101 26.8444C8.82744 28.125 9.72231 30 11.4191 30H19.5543C21.2492 30 22.1441 28.125 21.2724 26.8463Z" fill="#064AFF"/>
</svg>
