<svg width="33" height="29" viewBox="0 0 33 29" fill="none" xmlns="http://www.w3.org/2000/svg">
<path d="M26.0762 29C28.8317 29 30.9375 26.6075 30.9375 23.8214V8.28571H2.0625V23.8214C2.0625 26.6075 4.16831 29 6.92381 29H26.0762ZM11.3438 12.4286H21.6562C21.9298 12.4286 22.1921 12.5377 22.3855 12.7319C22.5789 12.9262 22.6875 13.1896 22.6875 13.4643C22.6875 13.739 22.5789 14.0024 22.3855 14.1966C22.1921 14.3909 21.9298 14.5 21.6562 14.5H11.3438C11.0702 14.5 10.8079 14.3909 10.6145 14.1966C10.4212 14.0024 10.3125 13.739 10.3125 13.4643C10.3125 13.1896 10.4212 12.9262 10.6145 12.7319C10.8079 12.5377 11.0702 12.4286 11.3438 12.4286ZM1.65 0C1.21239 0 0.792709 0.174591 0.483274 0.485366C0.173839 0.79614 0 1.21764 0 1.65714L0 4.14286C0 4.58236 0.173839 5.00386 0.483274 5.31463C0.792709 5.62541 1.21239 5.8 1.65 5.8H31.35C31.7876 5.8 32.2073 5.62541 32.5167 5.31463C32.8262 5.00386 33 4.58236 33 4.14286V1.65714C33 1.21764 32.8262 0.79614 32.5167 0.485366C32.2073 0.174591 31.7876 0 31.35 0H1.65Z" fill="#064AFF"/>
</svg>
