<svg width="32" height="32" viewBox="0 0 32 32" fill="none" xmlns="http://www.w3.org/2000/svg">
<path d="M16 0C20.2435 0 24.3131 1.68571 27.3137 4.68629C30.3143 7.68687 32 11.7565 32 16C32 20.2435 30.3143 24.3131 27.3137 27.3137C24.3131 30.3143 20.2435 32 16 32C11.7565 32 7.68687 30.3143 4.68629 27.3137C1.68571 24.3131 0 20.2435 0 16C0 11.7565 1.68571 7.68687 4.68629 4.68629C7.68687 1.68571 11.7565 0 16 0Z" fill="#064AFF"/>
<path d="M8.57015 12.866C8.79983 12.9986 9.07278 13.0345 9.32895 12.9659C9.58513 12.8973 9.80354 12.7297 9.93616 12.5C10.5504 11.4353 11.4343 10.5513 12.4988 9.93683C13.5634 9.3224 14.771 8.99928 16.0002 9C18.5902 9 20.8522 10.406 22.0642 12.5C22.1977 12.7278 22.4159 12.8935 22.6712 12.961C22.9265 13.0285 23.1982 12.9923 23.4269 12.8603C23.6555 12.7282 23.8227 12.5111 23.8919 12.2563C23.9611 12.0014 23.9267 11.7296 23.7962 11.5C23.0064 10.1313 21.8701 8.99476 20.5015 8.20479C19.1329 7.41482 17.5804 6.99928 16.0002 7C14.42 6.99969 12.8677 7.4154 11.4992 8.20533C10.1306 8.99526 8.99422 10.1316 8.20416 11.5C8.07155 11.7297 8.03562 12.0026 8.10426 12.2588C8.17289 12.515 8.34048 12.7334 8.57015 12.866ZM14.0002 19C14.0002 17.344 13.1042 16 12.0002 16C10.8962 16 10.0002 17.344 10.0002 19C10.0002 20.656 10.8962 22 12.0002 22C13.1042 22 14.0002 20.656 14.0002 19ZM22.0002 19C22.0002 17.344 21.1042 16 20.0002 16C18.8962 16 18.0002 17.344 18.0002 19C18.0002 20.656 18.8962 22 20.0002 22C21.1042 22 22.0002 20.656 22.0002 19Z" fill="white"/>
</svg>
