<svg width="28" height="28" viewBox="0 0 28 28" fill="none" xmlns="http://www.w3.org/2000/svg">
<path d="M11.1495 12.8749L11.1495 12.875C11.05 13.0473 10.8862 13.173 10.6941 13.2244C10.502 13.2759 10.2972 13.249 10.125 13.1495L10.125 13.1495C9.95272 13.05 9.82703 12.8862 9.77555 12.6941C9.72408 12.502 9.75103 12.2973 9.85048 12.125L9.85048 12.125C10.2675 11.4028 10.8672 10.803 11.5895 10.3861C12.3117 9.96926 13.131 9.74986 13.9649 9.75L11.1495 12.8749ZM11.1495 12.8749C11.4347 12.3806 11.8451 11.9702 12.3393 11.6849C12.8335 11.3997 13.3942 11.2497 13.9648 11.25H13.965M11.1495 12.8749L13.965 11.25M13.965 11.25C15.1672 11.25 16.2175 11.9023 16.7806 12.8752L16.7806 12.8752M13.965 11.25L16.7806 12.8752M16.7806 12.8752L16.7813 12.8764M16.7806 12.8752L16.7813 12.8764M16.7813 12.8764C16.8815 13.0473 17.0452 13.1716 17.2366 13.2222C17.4281 13.2728 17.6318 13.2457 17.8033 13.1466C17.9749 13.0476 18.1002 12.8848 18.1521 12.6936C18.204 12.5025 18.1782 12.2986 18.0803 12.1264L18.0795 12.1251M16.7813 12.8764L18.0795 12.1251M18.0795 12.1251C17.6627 11.4027 17.0629 10.8028 16.3406 10.3859M18.0795 12.1251L16.3406 10.3859M16.3406 10.3859C15.6183 9.96896 14.799 9.74965 13.965 9.75L16.3406 10.3859ZM13.215 16C13.215 15.5435 13.0919 15.1187 12.88 14.8008C12.6693 14.4847 12.3507 14.25 11.965 14.25C11.5793 14.25 11.2607 14.4847 11.05 14.8008C10.838 15.1187 10.715 15.5435 10.715 16C10.715 16.4565 10.838 16.8813 11.05 17.1992C11.2607 17.5153 11.5793 17.75 11.965 17.75C12.3507 17.75 12.6693 17.5153 12.88 17.1992C13.0919 16.8813 13.215 16.4565 13.215 16ZM17.215 16C17.215 15.5435 17.0919 15.1187 16.88 14.8008C16.6693 14.4847 16.3507 14.25 15.965 14.25C15.5793 14.25 15.2607 14.4847 15.05 14.8008C14.838 15.1187 14.715 15.5435 14.715 16C14.715 16.4565 14.838 16.8813 15.05 17.1992C15.2607 17.5153 15.5793 17.75 15.965 17.75C16.3507 17.75 16.6693 17.5153 16.88 17.1992C17.0919 16.8813 17.215 16.4565 17.215 16Z" fill="white" stroke="white" stroke-width="0.5"/>
<path d="M13.75 5.75378C11.6527 5.81731 9.65452 6.67822 8.16637 8.16637C6.61919 9.71354 5.75 11.812 5.75 14C5.75 16.188 6.61919 18.2865 8.16637 19.8336C9.71354 21.3808 11.812 22.25 14 22.25C16.188 22.25 18.2865 21.3808 19.8336 19.8336C21.3808 18.2865 22.25 16.188 22.25 14C22.25 11.812 21.3808 9.71354 19.8336 8.16637C18.2865 6.61919 16.188 5.75 14 5.75H13.75V5.75378ZM9.22703 9.22703C10.4929 7.96116 12.2098 7.25 14 7.25C15.7902 7.25 17.5071 7.96116 18.773 9.22703C20.0388 10.4929 20.75 12.2098 20.75 14C20.75 15.7902 20.0388 17.5071 18.773 18.773C17.5071 20.0388 15.7902 20.75 14 20.75C12.2098 20.75 10.4929 20.0388 9.22703 18.773C7.96116 17.5071 7.25 15.7902 7.25 14C7.25 12.2098 7.96116 10.4929 9.22703 9.22703Z" fill="white" stroke="white" stroke-width="0.5"/>
</svg>
