<svg width="28" height="28" viewBox="0 0 28 28" fill="none" xmlns="http://www.w3.org/2000/svg">
<path d="M10.25 12.933C10.3648 12.9993 10.5013 13.0173 10.6294 12.9829C10.7575 12.9486 10.8667 12.8648 10.933 12.75C11.2401 12.2177 11.682 11.7756 12.2143 11.4684C12.7466 11.1612 13.3504 10.9996 13.965 11C15.26 11 16.391 11.703 16.997 12.75C17.0638 12.8639 17.1729 12.9468 17.3005 12.9805C17.4282 13.0143 17.564 12.9962 17.6783 12.9301C17.7927 12.8641 17.8763 12.7556 17.9109 12.6281C17.9455 12.5007 17.9282 12.3648 17.863 12.25C17.4681 11.5656 16.8999 10.9974 16.2156 10.6024C15.5314 10.2074 14.7551 9.99964 13.965 10C13.1749 9.99984 12.3987 10.2077 11.7145 10.6027C11.0302 10.9976 10.462 11.5658 10.067 12.25C10.0007 12.3648 9.98272 12.5013 10.017 12.6294C10.0514 12.7575 10.1351 12.8667 10.25 12.933ZM12.965 16C12.965 15.172 12.517 14.5 11.965 14.5C11.413 14.5 10.965 15.172 10.965 16C10.965 16.828 11.413 17.5 11.965 17.5C12.517 17.5 12.965 16.828 12.965 16ZM16.965 16C16.965 15.172 16.517 14.5 15.965 14.5C15.413 14.5 14.965 15.172 14.965 16C14.965 16.828 15.413 17.5 15.965 17.5C16.517 17.5 16.965 16.828 16.965 16Z" fill="black"/>
<path d="M14 7C12.1435 7 10.363 7.7375 9.05025 9.05025C7.7375 10.363 7 12.1435 7 14C7 15.8565 7.7375 17.637 9.05025 18.9497C10.363 20.2625 12.1435 21 14 21C15.8565 21 17.637 20.2625 18.9497 18.9497C20.2625 17.637 21 15.8565 21 14C21 12.1435 20.2625 10.363 18.9497 9.05025C17.637 7.7375 15.8565 7 14 7V7ZM14 6C16.1217 6 18.1566 6.84285 19.6569 8.34315C21.1571 9.84344 22 11.8783 22 14C22 16.1217 21.1571 18.1566 19.6569 19.6569C18.1566 21.1571 16.1217 22 14 22C11.8783 22 9.84344 21.1571 8.34315 19.6569C6.84285 18.1566 6 16.1217 6 14C6 11.8783 6.84285 9.84344 8.34315 8.34315C9.84344 6.84285 11.8783 6 14 6V6Z" fill="black"/>
</svg>
