<svg width="25" height="19" viewBox="0 0 25 19" fill="none" xmlns="http://www.w3.org/2000/svg">
<path d="M0 3.16667C0 2.32681 0.32924 1.52136 0.915291 0.927495C1.50134 0.33363 2.2962 0 3.125 0H21.875C22.7038 0 23.4987 0.33363 24.0847 0.927495C24.6708 1.52136 25 2.32681 25 3.16667V15.8333C25 16.6732 24.6708 17.4786 24.0847 18.0725C23.4987 18.6664 22.7038 19 21.875 19H3.125C2.2962 19 1.50134 18.6664 0.915291 18.0725C0.32924 17.4786 0 16.6732 0 15.8333V3.16667ZM3.125 1.58333C2.7106 1.58333 2.31317 1.75015 2.02015 2.04708C1.72712 2.34401 1.5625 2.74674 1.5625 3.16667V3.51025L12.5 10.1602L23.4375 3.51025V3.16667C23.4375 2.74674 23.2729 2.34401 22.9799 2.04708C22.6868 1.75015 22.2894 1.58333 21.875 1.58333H3.125Z" fill="#064AFF"/>
</svg>
