<svg width="12" height="18" viewBox="0 0 12 18" fill="none" xmlns="http://www.w3.org/2000/svg">
<path d="M2.25 0C1.65326 0 1.08097 0.237053 0.65901 0.65901C0.237053 1.08097 0 1.65326 0 2.25V15.75C0 16.3467 0.237053 16.919 0.65901 17.341C1.08097 17.7629 1.65326 18 2.25 18H9C9.59674 18 10.169 17.7629 10.591 17.341C11.0129 16.919 11.25 16.3467 11.25 15.75V2.25C11.25 1.65326 11.0129 1.08097 10.591 0.65901C10.169 0.237053 9.59674 0 9 0L2.25 0Z" fill="#064AFF"/>
<path d="M2.625 15C2.07272 15 1.625 14.5523 1.625 14L1.625 3C1.625 2.44771 2.07272 2 2.625 2H8.625C9.17728 2 9.625 2.44771 9.625 3V14C9.625 14.5523 9.17728 15 8.625 15H2.625Z" fill="white"/>
</svg>
