<svg width="28" height="28" viewBox="0 0 28 28" fill="none" xmlns="http://www.w3.org/2000/svg">
<path d="M6 7C6 6.73478 6.10536 6.48043 6.29289 6.29289C6.48043 6.10536 6.73478 6 7 6H21C21.2652 6 21.5196 6.10536 21.7071 6.29289C21.8947 6.48043 22 6.73478 22 7V9C22 9.26522 21.8947 9.51957 21.7071 9.70711C21.5196 9.89465 21.2652 10 21 10V17.5C21 18.163 20.7366 18.7989 20.2678 19.2678C19.7989 19.7366 19.163 20 18.5 20H9.5C8.83696 20 8.20108 19.7366 7.73223 19.2678C7.26339 18.7989 7 18.163 7 17.5V10C6.73478 10 6.48043 9.89465 6.29289 9.70711C6.10536 9.51957 6 9.26522 6 9V7ZM8 10V17.5C8 17.8978 8.15804 18.2794 8.43934 18.5607C8.72065 18.842 9.10218 19 9.5 19H18.5C18.8978 19 19.2794 18.842 19.5607 18.5607C19.842 18.2794 20 17.8978 20 17.5V10H8ZM21 7H7V9H21V7ZM11 12.5C11 12.3674 11.0527 12.2402 11.1464 12.1465C11.2402 12.0527 11.3674 12 11.5 12H16.5C16.6326 12 16.7598 12.0527 16.8536 12.1465C16.9473 12.2402 17 12.3674 17 12.5C17 12.6326 16.9473 12.7598 16.8536 12.8536C16.7598 12.9473 16.6326 13 16.5 13H11.5C11.3674 13 11.2402 12.9473 11.1464 12.8536C11.0527 12.7598 11 12.6326 11 12.5Z" fill="black"/>
</svg>
