<svg width="20" height="17" viewBox="0 0 20 17" fill="none" xmlns="http://www.w3.org/2000/svg">
<path d="M0.0407603 14.5833C0.0407603 14.4286 0.106608 14.2802 0.223819 14.1709C0.341029 14.0615 0.5 14 0.66576 14L8.375 13H11.375L19.375 13.9167C19.5408 13.9167 19.6997 13.9781 19.8169 14.0875C19.9342 14.1969 20 14.3453 20 14.5C20 14.6547 19.9342 15.8031 19.8169 15.9125C19.6997 16.0219 19.5408 16.0833 19.375 16.0833L11.375 15.1667H8.375L0.66576 16.1667C0.5 16.1667 0.341029 16.1052 0.223819 15.9958C0.106608 15.8864 0.0407603 14.738 0.0407603 14.5833ZM2.5 0H17.5C17.5 0 20 0 20 2.33333V10.6667C20 10.6667 20 13 17.5 13H2.5C2.5 13 0 13 0 10.6667V2.33333C0 2.33333 0 0 2.5 0Z" fill="#064AFF"/>
<rect x="2" y="2" width="16" height="9" rx="1" fill="white"/>
</svg>
