<svg width="29" height="28" viewBox="0 0 29 28" fill="none" xmlns="http://www.w3.org/2000/svg">
<path d="M13.9954 7C13.1334 7 12.3068 7.34241 11.6973 7.9519C11.0878 8.5614 10.7454 9.38805 10.7454 10.25C10.7454 10.436 10.7454 10.54 10.7614 10.66C10.7754 10.78 10.8064 10.93 10.8814 11.187L11.0714 11.852L10.3794 11.824C9.82754 11.8011 9.279 11.9193 8.78552 12.1673C8.29203 12.4152 7.86988 12.7849 7.55892 13.2413C7.24795 13.6978 7.05844 14.2259 7.00825 14.7759C6.95807 15.3259 7.04888 15.8796 7.2721 16.3848C7.49533 16.89 7.84361 17.3299 8.28406 17.6631C8.72452 17.9963 9.24262 18.2118 9.78947 18.2892C10.3363 18.3665 10.8939 18.3033 11.4095 18.1054C11.9251 17.9075 12.3817 17.5814 12.7364 17.158C12.8131 17.065 12.9209 17.0029 13.0398 16.9831C13.1587 16.9633 13.2808 16.9871 13.3835 17.0501C13.4863 17.1132 13.5628 17.2113 13.599 17.3263C13.6351 17.4413 13.6285 17.5655 13.5804 17.676L13.5774 17.681L13.5714 17.696L13.5474 17.751C13.4085 18.061 13.2625 18.3678 13.1094 18.671C12.7292 19.4267 12.3065 20.1602 11.8434 20.868C11.8304 20.886 11.8234 20.918 11.8444 20.958C11.8544 20.978 11.8654 20.988 11.8744 20.994C11.8806 20.9981 11.8879 21.0002 11.8954 21H16.0954C16.1054 21 16.1114 20.998 16.1174 20.994C16.1298 20.985 16.1398 20.9729 16.1464 20.959C16.1664 20.919 16.1604 20.886 16.1474 20.868C15.4994 19.8748 14.9297 18.8326 14.4434 17.751L14.4194 17.697L14.4134 17.682L14.4114 17.678C14.3642 17.5683 14.3579 17.4453 14.3935 17.3314C14.4291 17.2174 14.5044 17.1199 14.6056 17.0566C14.7069 16.9933 14.8275 16.9683 14.9455 16.9862C15.0636 17.004 15.1714 17.0636 15.2494 17.154C15.8504 17.854 16.7654 18.322 17.7454 18.322C18.1756 18.3182 18.6008 18.229 18.9963 18.0597C19.3917 17.8903 19.7497 17.644 20.0493 17.3353C20.3488 17.0265 20.5841 16.6613 20.7415 16.2609C20.8989 15.8604 20.9752 15.4328 20.966 15.0026C20.9568 14.5725 20.8623 14.1485 20.6879 13.7551C20.5136 13.3618 20.2629 13.007 19.9503 12.7113C19.6378 12.4156 19.2697 12.1849 18.8673 12.0326C18.465 11.8803 18.0364 11.8094 17.6064 11.824L16.9074 11.854L17.1064 11.183C17.2464 10.713 17.2464 10.438 17.2454 10.256V10.25C17.2454 9.38805 16.903 8.5614 16.2935 7.9519C15.684 7.34241 14.8573 7 13.9954 7V7ZM16.2024 19.024C16.4274 19.429 16.6894 19.872 16.9824 20.318C17.4324 21 16.9704 22 16.0954 22H11.8954C11.0194 22 10.5574 21 11.0084 20.317C11.2994 19.875 11.5604 19.437 11.7844 19.034C11.2208 19.2522 10.6173 19.3476 10.0139 19.3141C9.4106 19.2805 8.82135 19.1187 8.28551 18.8394C7.74966 18.5601 7.27954 18.1697 6.90651 17.6943C6.53347 17.2189 6.2661 16.6694 6.12222 16.0825C5.97835 15.4957 5.96128 14.8848 6.07216 14.2908C6.18304 13.6968 6.41931 13.1333 6.76522 12.6378C7.11113 12.1423 7.55872 11.7263 8.07813 11.4175C8.59754 11.1087 9.17684 10.9142 9.77736 10.847C9.77411 10.8257 9.77111 10.8044 9.76836 10.783C9.74536 10.596 9.74536 10.435 9.74536 10.263V10.25C9.74536 9.12283 10.1931 8.04183 10.9902 7.2448C11.7872 6.44777 12.8682 6 13.9954 6C15.1225 6 16.2035 6.44777 17.0006 7.2448C17.7976 8.04183 18.2454 9.12283 18.2454 10.25C18.2454 10.39 18.2454 10.583 18.2054 10.846C19.2881 10.9615 20.2852 11.4882 20.9909 12.3174C21.6966 13.1466 22.0572 14.2151 21.9982 15.3023C21.9392 16.3896 21.4651 17.4127 20.6738 18.1607C19.8825 18.9086 18.8342 19.3243 17.7454 19.322C17.2168 19.321 16.6933 19.2199 16.2024 19.024V19.024Z" fill="black"/>
</svg>
