<svg width="12" height="11" viewBox="0 0 12 11" fill="none" xmlns="http://www.w3.org/2000/svg">
<path fill-rule="evenodd" clip-rule="evenodd" d="M2.62131 0.292894C2.23079 -0.0976307 1.59762 -0.0976307 1.2071 0.292894C0.816576 0.683418 0.816576 1.31658 1.2071 1.70711L4.83578 5.33579L1.29288 8.87868C0.90236 9.2692 0.90236 9.90237 1.29288 10.2929C1.68341 10.6834 2.31657 10.6834 2.7071 10.2929L6.24999 6.75L9.79289 10.2929C10.1834 10.6834 10.8166 10.6834 11.2071 10.2929C11.5976 9.90237 11.5976 9.2692 11.2071 8.87868L7.66421 5.33579L11.2929 1.70711C11.6834 1.31658 11.6834 0.683418 11.2929 0.292894C10.9024 -0.0976305 10.2692 -0.0976308 9.87867 0.292894L6.24999 3.92157L2.62131 0.292894Z" fill="#00C1FF"/>
</svg>
